<svg version="1.1" viewBox="0 0 128 128" xmlns="http://www.w3.org/2000/svg">
 <defs>
  <linearGradient id="linearGradient943" x1="11.543" x2="97.254" y1="285.15" y2="226.63" gradientTransform="matrix(.88379 0 0 1 4.9271 -174)" gradientUnits="userSpaceOnUse">
   <stop stop-color="#1c71d8" offset="0"/>
   <stop stop-color="#3584e4" stop-opacity=".40024" offset="1"/>
  </linearGradient>
  <clipPath id="clipPath270">
   <rect x="12" y="48" width="104" height="66" ry="7.7266" enable-background="new" fill="#b58345" stroke-width="0"/>
  </clipPath>
 </defs>
 <g transform="matrix(4.0703 0 0 4.0703 -4.9231 -.92289)">
  <g fill="#5e5c64">
   <rect x="21.97" y="2.8064" width="1.9655" height="10.319" ry=".69969" enable-background="new"/>
   <rect x="11.037" y="2.8064" width="12.039" height="1.9655" ry="0" enable-background="new"/>
   <rect x="9.9313" y="2.8064" width="1.9655" height="10.319" ry=".69969" enable-background="new"/>
  </g>
  <g fill="#77767b">
   <rect x="22.338" y="3.175" width="1.2284" height="10.319" ry=".69969" enable-background="new"/>
   <rect transform="rotate(-90)" x="-4.4033" y="10.914" width="1.2284" height="12.039" enable-background="new"/>
   <rect x="10.3" y="3.175" width="1.2284" height="10.319" ry=".69969" enable-background="new"/>
  </g>
 </g>
 <g transform="matrix(4.0703,0,0,4.0019,-4.9231,-6.8238)" stroke-width="0">
  <rect x="4.1577" y="13.699" width="25.551" height="16.992" ry="1.9893" enable-background="new" fill="#986a44"/>
  <rect x="4.1577" y="13.699" width="25.551" height="16.492" ry="1.9307" enable-background="new" fill="#b58345"/>
 </g>
 <path transform="translate(3.995e-7,-4.3482e-4)" d="m12 84.098s8.4338-15.57 28.089-16.536c22.915-2.794 23.596-2.9743 36.746-9.0104 15.382-9.3388 19.323-12.567 10.608 3.6944-10.615 12.565-24.683 20.484-39.488 20.436 0 0 14.521 3.0192 28.005-3.9537 12.629-8.3157 12.996-8.006 9.0147-1.665-14.182 23.303-48.254 20.294-48.254 20.294s16.421 4.3667 31.079 0.53699c12.456-5.3486 12.045-5.4417 7.9709-0.376-11.347 12.459-29.811 12.973-31.648 12.778-15.063-1.6009-21.209 3.704-21.209 3.704h-10.913z" clip-path="url(#clipPath270)" enable-background="new" fill="url(#linearGradient943)"/>
 <g transform="matrix(4.0703,0,0,4.0703,-5.4231,-5.0772)">
  <rect x="14.354" y="17.462" width="5.6507" height="9.0903" ry="1.719" enable-background="new" fill="#63452c"/>
  <rect x="14.354" y="17.462" width="5.4051" height="8.8446" ry="1.6726" enable-background="new" fill="#986a44"/>
 </g>
 <g transform="matrix(.83481 0 0 .83481 -16.216 14.001)">
  <path d="m101.48 81.474c0.0124-2.6462-2.3906-4.8005-5.3676-4.8117-2.977-0.01101-5.4006 2.125-5.4131 4.7712-0.0085 1.8291 1.1549 3.5031 2.9992 4.3144l-0.83231 5.1748c-0.08343 0.52404 0.32696 1.0089 0.9165 1.083 0.04995 0.0059 0.10037 0.0093 0.15078 0.0093h4.3124c0.5954 0.0059 1.083-0.41928 1.0889-0.94853 5e-4 -0.04879-2e-3 -0.09757-0.0113-0.1458l-0.83187-5.1748c1.8217-0.81036 2.9767-2.4615 2.9885-4.2721z" fill="#3d3846" stroke-width=".09529"/>
  <path d="m101.48 81.475c0.011-2.6462-2.125-4.8005-4.7712-4.8117-2.6462-0.01101-4.8005 2.125-4.8117 4.7712-0.0076 1.8291 1.0266 3.5031 2.6659 4.3144l-0.73983 5.1748c-0.07416 0.52404 0.29063 1.0089 0.81467 1.083 0.0444 0.0059 0.08922 0.0093 0.13403 0.0093h3.8332c0.52925 0.0059 0.96264-0.41929 0.96794-0.94854 4.4e-4 -0.04879-0.0025-0.09757-0.0096-0.1458l-0.73983-5.1748c1.6193-0.81036 2.646-2.4615 2.6565-4.2721z" fill="#241f31" stroke-width=".089841"/>
 </g>
</svg>
