<svg version="1.1" viewBox="0 0 16 16" xmlns="http://www.w3.org/2000/svg">
 <defs>
  <clipPath id="clipPath1676">
   <path d="m42.333 3.0686s0.37172-0.60648 1.238-0.64413c1.01-0.10883 1.04-0.11586 1.6196-0.35098 0.67794-0.36377 0.85164-0.48951 0.46754 0.14391-0.46785 0.48945-1.0879 0.7979-1.7404 0.79603 0 0 0.64002 0.11761 1.2343-0.15401 0.55662-0.32392 0.5728-0.31186 0.39732-0.064856-0.62505 0.90771-2.1268 0.79051-2.1268 0.79051s0.72375 0.1701 1.3698 0.020913c0.549-0.20834 0.53088-0.21197 0.35132-0.014642-0.50012 0.48531-1.3139 0.50534-1.3949 0.49774-0.66388-0.06236-0.93479 0.14428-0.93479 0.14428h-0.48099z" display="none" enable-background="new" fill="#f0f" fill-opacity=".63184"/>
   <path class="powerclip" d="m37.333-3.4125h14.233v12.646h-14.233zm5 6.4811v1.1648h0.48099s0.27091-0.20664 0.93479-0.14428c0.08094 0.0076 0.89474-0.012427 1.3949-0.49774 0.17956-0.19733 0.19768-0.1937-0.35132 0.014642-0.64603 0.14918-1.3698-0.020913-1.3698-0.020913s1.5017 0.1172 2.1268-0.79051c0.17548-0.247 0.1593-0.25907-0.39732 0.064856-0.59432 0.27162-1.2343 0.15401-1.2343 0.15401 0.65252 0.00187 1.2726-0.30658 1.7404-0.79603 0.3841-0.63342 0.21039-0.50768-0.46754-0.14391-0.57956 0.23513-0.60957 0.24215-1.6196 0.35098-0.86629 0.037641-1.238 0.64413-1.238 0.64413z" enable-background="new" fill="#f0f" fill-opacity=".63184"/>
  </clipPath>
 </defs>
 <g transform="translate(2.1864 -2.6161)">
  <path transform="matrix(3.7795 0 0 3.7795 -162.19 2.6161)" x="42.333332" y="1.5875" width="4.2333331" height="2.6458333" ry="0.30974582" d="m42.643 1.5875h3.6138c0.1716 0 0.30975 0.13815 0.30975 0.30975v2.0263c0 0.1716-0.13815 0.30975-0.30975 0.30975h-3.6138c-0.1716 0-0.30975-0.13815-0.30975-0.30975v-2.0263c0-0.1716 0.13815-0.30975 0.30975-0.30975z" clip-path="url(#clipPath1676)" enable-background="new" stroke-width="0"/>
  <rect transform="rotate(-90)" x="-3.6161" y="2.3135" width="1" height="7" enable-background="new"/>
  <rect x="1.8135" y="2.6161" width="1" height="7" ry=".47465" enable-background="new"/>
  <rect x="8.8863" y="2.6163" width="1" height="7" ry=".47465" enable-background="new"/>
 </g>
</svg>
